# xmcd
#
# Track frame offsets:
# 150
# 16422
# 33844
# 51534
# 71724
# 79640
# 92215
# 108723
# 141064
#
# Disc length: 2352 seconds
#
#
# Revision: 0
# Processed by: cddbd v1.5.2PL0 Copyright (c) Steve Scherf et al.
# Submitted via: FreeRIP 2.951 
#
DISCID=79092e09
DTITLE=Janis Joplin - Janis Joplin
DYEAR=1981
DGENRE=Blues
TTITLE0=Move Over
TTITLE1=Half Moon
TTITLE2=Cry Baby
TTITLE3=Me and Bobby McGee
TTITLE4=Mercedes Benz
TTITLE5=Down on me
TTITLE6=Bye Bye Baby
TTITLE7=Get it while you can
TTITLE8=Ball and Chain
EXTD=AMIGA - DDR
EXTT0=
EXTT1=
EXTT2=
EXTT3=
EXTT4=
EXTT5=
EXTT6=
EXTT7=
EXTT8=
PLAYORDER=
